<svg id="Capa_1" data-name="Capa 1" xmlns="http://www.w3.org/2000/svg" viewBox="0 0 75 75"><defs><style>.cls-1{fill:#006ec9;}</style></defs><title>asuntosMesa de trabajo 1</title><path class="cls-1" d="M63,43.5l-.34.18a4.67,4.67,0,0,0-5.54-1.39h0l-.8.43a6.05,6.05,0,0,0-6.94-.62l-4.3,2.33H39.38a8.23,8.23,0,0,1-3.58-.82L35,43.24a13.5,13.5,0,0,0-14,1.37l-.06,0L19,46.35a6.39,6.39,0,0,1-2.48,1.38L15.46,44.2a.86.86,0,0,0-.82-.61H5.46a.85.85,0,0,0-.85.85v.11l3.06,25.1a.86.86,0,0,0,.85.75H22.29a.86.86,0,0,0,.86-.86.73.73,0,0,0,0-.25L21.3,63.36l5.64-3.57a3.42,3.42,0,0,1,2.47-.32h.05L40.93,61.6a14.86,14.86,0,0,0,9.16-1.3l.11-.06L70,46.63a.85.85,0,0,0,.25-1.15A5.43,5.43,0,0,0,63,43.5Zm-5.09.31a2.92,2.92,0,0,1,3.19.71L53.6,48.58l-.44.23a6.56,6.56,0,0,0-1-1.87Zm-7.71-.21h0a4.37,4.37,0,0,1,4.42,0l-3.82,2.06a6.66,6.66,0,0,0-2.44-1.1ZM9.28,68.69,6.43,45.3H14l7.13,23.39Zm40-9.9a13.09,13.09,0,0,1-8.05,1.12L29.8,57.81a5.13,5.13,0,0,0-3.72.5l0,0-5.26,3.33L17,49.37a8.36,8.36,0,0,0,3.12-1.74L22,46a11.8,11.8,0,0,1,12.24-1.18l.79.38a9.91,9.91,0,0,0,4.32,1H47a4.82,4.82,0,0,1,4.73,3.92l-5.53-.25a32.67,32.67,0,0,0-6,.28.85.85,0,0,0,.23,1.69,32,32,0,0,1,5.71-.27l6.5.3h0a.86.86,0,0,0,.86-.85c0-.14,0-.28,0-.42l.89-.47L63.83,45a3.74,3.74,0,0,1,4.49.72Z"/><path class="cls-1" d="M12,65.15a2.7,2.7,0,1,0,2.7-2.69A2.69,2.69,0,0,0,12,65.15Zm2.7-1a1,1,0,1,1-1,1,1,1,0,0,1,1-1Z"/><path class="cls-1" d="M44,13.88V11.06a6.49,6.49,0,0,0-13,0v2.82a6.49,6.49,0,0,0,13,0Zm-11.27,0V11.06a4.78,4.78,0,0,1,9.56,0v2.82a4.78,4.78,0,0,1-9.56,0Z"/><path class="cls-1" d="M27.05,38H48a.85.85,0,0,0,.85-.85h0v-2H63.14A.86.86,0,0,0,64,34.3V28.75a6.41,6.41,0,0,0-6-6.39,1,1,0,0,0-.88.49,3.92,3.92,0,0,1-5.52.55,3.71,3.71,0,0,1-.67-.7.84.84,0,0,0-.71-.35,6.34,6.34,0,0,0-3.14.92,7.23,7.23,0,0,0-5-2.49,1,1,0,0,0-.88.51,4.6,4.6,0,0,1-6.48.65,4.65,4.65,0,0,1-.78-.82.84.84,0,0,0-.71-.35,7.09,7.09,0,0,0-5,2.17l-.32.34A6.39,6.39,0,0,0,25,22.36a1,1,0,0,0-.88.49,3.92,3.92,0,0,1-5.52.55,4,4,0,0,1-.67-.7.83.83,0,0,0-.71-.35A6.41,6.41,0,0,0,11,28.75V34.3a.86.86,0,0,0,.86.86H26.2v2A.85.85,0,0,0,27.05,38ZM49.86,24.09a5.63,5.63,0,0,0,8,.5,5.44,5.44,0,0,0,.48-.48,4.7,4.7,0,0,1,4,4.64v4.7H48.82V28A7.14,7.14,0,0,0,48,24.69,4.55,4.55,0,0,1,49.86,24.09Zm-17-1.58a6.32,6.32,0,0,0,8.91.65q.33-.3.63-.63A5.49,5.49,0,0,1,47.12,28v8.3H27.91V28A5.51,5.51,0,0,1,32.84,22.51ZM12.71,33.45v-4.7a4.73,4.73,0,0,1,4.17-4.66,5.63,5.63,0,0,0,8,.5,5.44,5.44,0,0,0,.48-.48A4.77,4.77,0,0,1,27,24.7,7.12,7.12,0,0,0,26.2,28v5.49Z"/><path class="cls-1" d="M59.77,16.43V14A5.79,5.79,0,1,0,48.2,14v2.47a5.79,5.79,0,0,0,11.57,0Zm-9.86,0V14a4.08,4.08,0,1,1,8.15,0h0v2.47a4.08,4.08,0,0,1-8.15,0Z"/><path class="cls-1" d="M26.8,16.43V14a5.79,5.79,0,1,0-11.58,0v2.47a5.79,5.79,0,0,0,11.58,0Zm-9.87,0V14a4.08,4.08,0,1,1,8.16,0h0v2.47a4.08,4.08,0,0,1-8.16,0Z"/></svg>