<svg id="Capa_1" data-name="Capa 1" xmlns="http://www.w3.org/2000/svg" viewBox="0 0 75 75"><defs><style>.cls-1{fill:#006ec9;}</style></defs><title>binoMesa de trabajo 1</title><path class="cls-1" d="M19.08,38.15A11.79,11.79,0,1,0,30.87,49.94,11.8,11.8,0,0,0,19.08,38.15Zm0,2.05a9.75,9.75,0,0,1,9.44,7.36,9.73,9.73,0,0,1-18.88,0A9.75,9.75,0,0,1,19.08,40.2Zm0,19.47a9.75,9.75,0,0,1-9.46-7.44,11.79,11.79,0,0,0,16.87,2.13,12.15,12.15,0,0,0,2.05-2.13A9.76,9.76,0,0,1,19.08,59.67Z"/><path class="cls-1" d="M71,44.17s-.2-.5-.28-.68L62,22.26a11.57,11.57,0,0,0-5.42-5.91l-.82-2A7,7,0,0,0,49.2,10,7.07,7.07,0,0,0,42.14,17v2.37a11.57,11.57,0,0,0-2.57,7.29v.78H35.33V26.7a11.58,11.58,0,0,0-2.58-7.29V17a7.05,7.05,0,0,0-13.58-2.69l-.83,2a11.61,11.61,0,0,0-5.42,5.91l-2.25,5.45a1,1,0,0,0,.56,1.34,1,1,0,0,0,1.34-.56L14.82,23A9.59,9.59,0,0,1,33.27,26.7V42A16.24,16.24,0,0,0,9,37.22l2.22-5.38a1,1,0,1,0-1.9-.78L4.16,43.49c-.08.18-.29.73-.31.77a16.25,16.25,0,1,0,31.48,5.68v-.67h4.24v.67A16.25,16.25,0,1,0,71,44.17ZM23.68,15.06a11.55,11.55,0,0,0-2.71.32l.1-.25A5,5,0,0,1,30.7,17v.38A11.57,11.57,0,0,0,23.68,15.06ZM49.2,12a5,5,0,0,1,4.63,3.09l.1.25a11.7,11.7,0,0,0-2.72-.32,11.56,11.56,0,0,0-7,2.36V17A5,5,0,0,1,49.2,12ZM41.62,26.7A9.59,9.59,0,0,1,60.07,23l5.85,14.18A16.24,16.24,0,0,0,41.62,42Zm-2,2.84v9.87H35.33V29.54ZM19.08,64.13A14.2,14.2,0,1,1,33.27,49.94,14.21,14.21,0,0,1,19.08,64.13ZM35.33,47.22V41.46h4.24v5.76ZM55.82,64.13A14.2,14.2,0,1,1,70,49.94,14.21,14.21,0,0,1,55.82,64.13Z"/><path class="cls-1" d="M63.8,42.65a1,1,0,0,0-.2,1.43,9.67,9.67,0,0,1,1.66,3.47A9.72,9.72,0,0,1,49.7,52.76a9.68,9.68,0,0,1-3.32-5.2,9.74,9.74,0,0,1,14.88-5.7,1,1,0,0,0,1.43-.27,1,1,0,0,0-.28-1.43,11.81,11.81,0,1,0,2.83,2.69A1,1,0,0,0,63.8,42.65Zm-8,17a9.75,9.75,0,0,1-9.46-7.44,11.43,11.43,0,0,0,2,2.13,11.8,11.8,0,0,0,14.83,0,12.21,12.21,0,0,0,2.05-2.14A9.76,9.76,0,0,1,55.82,59.67Z"/></svg>