<svg id="Capa_1" data-name="Capa 1" xmlns="http://www.w3.org/2000/svg" viewBox="0 0 75 75"><defs><style>.cls-1{fill:#006ec9;}</style></defs><title>gestionMesa de trabajo 1</title><path class="cls-1" d="M15.25,29.29a4.68,4.68,0,0,1,9.35,0c0,1.25.06,2.41.17,3.52h2.38a2.65,2.65,0,0,0,2.64-2.63v-3.8a1,1,0,0,1,1-1h3.8a2.62,2.62,0,0,0,1.86-4.49,2.67,2.67,0,0,0-1.86-.77H30.8a1,1,0,0,1-1-1v-3.8a2.63,2.63,0,0,0-2.64-2.63H23.36a1,1,0,0,1-1-1V7.85a2.66,2.66,0,0,0-2.64-2.64,2.65,2.65,0,0,0-2.63,2.64v3.79a1,1,0,0,1-1,1h-3.8a2.63,2.63,0,0,0-2.63,2.63V30.18A2.58,2.58,0,0,0,10.41,32a2.63,2.63,0,0,0,1.86.78h3Zm44.5,11a1,1,0,0,1-2,0v-11a2.65,2.65,0,0,0-5.29,0,50.15,50.15,0,0,1-1,9.07,37.22,37.22,0,0,0-.77,6.58c0,2.74.77,7.71,3.36,9.45a1,1,0,0,1,.45.84v2.68H64.76a36.7,36.7,0,0,1,2.14-5.8A29.84,29.84,0,0,0,70,38.31a37.43,37.43,0,0,0-1.49-10.73,21.93,21.93,0,0,0-2.18-5v7.63a4.68,4.68,0,0,1-4.66,4.65h-1.9Zm0-11v3.52h1.9a2.66,2.66,0,0,0,2.64-2.63V15.29a2.65,2.65,0,0,0-2.64-2.63h-3.8a1,1,0,0,1-1-1V7.85A2.59,2.59,0,0,0,56.07,6a2.61,2.61,0,0,0-3.72,0,2.6,2.6,0,0,0-.78,1.86v3.79a1,1,0,0,1-1,1H46.77a2.65,2.65,0,0,0-2.64,2.63v2.79h2.79a4.66,4.66,0,0,1,0,9.31H44.13v2.79a2.66,2.66,0,0,0,2.64,2.63h3.46c.11-1.11.18-2.27.18-3.52a4.69,4.69,0,0,1,4.67-4.67,4.69,4.69,0,0,1,4.67,4.67Zm-44.5,5.54h-3a4.66,4.66,0,0,1-4.65-4.65V24.49a24.23,24.23,0,0,0-1.42,4A38.65,38.65,0,0,0,5,38.31,29.84,29.84,0,0,0,8.1,52.11a36.7,36.7,0,0,1,2.14,5.8H20.5V55.23A1,1,0,0,1,21,54.4c2.59-1.75,3.36-6.72,3.36-9.46a37.22,37.22,0,0,0-.77-6.58,50.15,50.15,0,0,1-1-9.07,2.65,2.65,0,0,0-2.65-2.64,2.63,2.63,0,0,0-2.64,2.64v11a1,1,0,0,1-2,0V34.83Zm42,35a1,1,0,1,1,0,2H50a1,1,0,0,1-1-1V62.45A4.55,4.55,0,0,1,52.47,58V55.73c-2.87-2.38-3.81-7.33-3.81-10.79a39.57,39.57,0,0,1,.8-6.93c.18-1,.37-2.07.53-3.18H46.77a4.68,4.68,0,0,1-4.66-4.65v-3.8a1,1,0,0,1,1-1h3.8a2.62,2.62,0,0,0,1.86-4.49,2.67,2.67,0,0,0-1.86-.77h-3.8a1,1,0,0,1-1-1v-3.8a4.66,4.66,0,0,1,4.66-4.65h2.78V7.85a4.66,4.66,0,0,1,9.32,0v2.79h2.78a4.66,4.66,0,0,1,4.66,4.65V19.2A20.25,20.25,0,0,1,70.42,27,39.36,39.36,0,0,1,72,38.31a31.57,31.57,0,0,1-3.25,14.62,35.07,35.07,0,0,0-1.94,5.15,4.63,4.63,0,0,1,2,1.16,4.54,4.54,0,0,1,1.33,3.21V70.8a1,1,0,0,1-1,1H61.81a1,1,0,1,1,0-2h6.28V62.45a2.53,2.53,0,0,0-2.52-2.52H53.49a2.52,2.52,0,0,0-1.79.74A2.55,2.55,0,0,0,51,62.45v7.34Zm-39.47,2a1,1,0,1,1,0-2H24V62.45a2.55,2.55,0,0,0-.74-1.78,2.51,2.51,0,0,0-1.78-.74H9.44a2.53,2.53,0,0,0-2.53,2.52v7.34h6.28a1,1,0,0,1,0,2H5.9a1,1,0,0,1-1-1V62.45a4.54,4.54,0,0,1,1.33-3.21,4.69,4.69,0,0,1,2-1.16,35.07,35.07,0,0,0-1.94-5.15A31.57,31.57,0,0,1,3,38.31,40.53,40.53,0,0,1,4.25,28a22.12,22.12,0,0,1,3.37-7.48V15.29a4.64,4.64,0,0,1,4.65-4.65h2.79V7.85a4.66,4.66,0,0,1,9.31,0v2.79h2.78a4.66,4.66,0,0,1,4.66,4.65v2.79H34.6a4.66,4.66,0,0,1,0,9.31H31.81v2.79a4.68,4.68,0,0,1-4.66,4.65H25c.15,1.11.34,2.16.52,3.18a39.57,39.57,0,0,1,.8,6.93c0,3.46-.94,8.41-3.81,10.79V58a4.55,4.55,0,0,1,3.53,4.43V70.8a1,1,0,0,1-1,1Z"/></svg>