<svg id="Capa_1" data-name="Capa 1" xmlns="http://www.w3.org/2000/svg" viewBox="0 0 75 75"><defs><style>.cls-1{fill:#006ec9;}</style></defs><title>letterMesa de trabajo 1</title><path class="cls-1" d="M62.89,33.49H54.81V20.88s0,0,0-.06v0a.64.64,0,0,1,0-.07h0l0-.06h0l0-.06v0s0,0,0-.05v0l0,0v0l-.05-.06h0L43.44,9.25h0s0,0,0-.05h0l0,0h0l-.06,0h0l-.06,0h0l-.07,0H12A3.06,3.06,0,0,0,9,12.06V59.6a6.41,6.41,0,0,0,6.4,6.4h44.2A6.41,6.41,0,0,0,66,59.6V36.55A3.07,3.07,0,0,0,62.89,33.49ZM45.07,20.13a1.39,1.39,0,0,1-1.39-1.39V11.85L52,20.13ZM64.28,59.6a4.74,4.74,0,0,1-9.47,0v-12a.83.83,0,0,0-.83-.83.84.84,0,0,0-.84.83v12a6.37,6.37,0,0,0,2.1,4.73H15.35a4.73,4.73,0,0,1-4.73-4.73V12.06A1.39,1.39,0,0,1,12,10.67H42v4.57H15.35a2,2,0,0,0-1.95,2v10a2,2,0,0,0,1.95,1.95h8.31a.84.84,0,1,0,0-1.67H15.35a.28.28,0,0,1-.28-.28v-10a.29.29,0,0,1,.28-.28H42v1.83a3.06,3.06,0,0,0,3.06,3.06h3.62v5.41a.27.27,0,0,1-.28.28H26.78a.84.84,0,0,0,0,1.67H48.41a2,2,0,0,0,2-1.95V21.8h2.78V44.47a.84.84,0,0,0,.84.84.83.83,0,0,0,.83-.84V35.16h8.08a1.4,1.4,0,0,1,1.39,1.39Z"/><path class="cls-1" d="M15.35,51.29H30.79a2,2,0,0,0,2-1.95V33.89a2,2,0,0,0-2-1.95H15.35a2,2,0,0,0-1.95,1.95V49.34A2,2,0,0,0,15.35,51.29Zm-.28-17.4a.29.29,0,0,1,.28-.28H30.79a.28.28,0,0,1,.28.28V49.34a.28.28,0,0,1-.28.28H15.35a.29.29,0,0,1-.28-.28Z"/><path class="cls-1" d="M49.53,31.94H36.36a.84.84,0,0,0-.83.84.83.83,0,0,0,.83.83H49.53a.83.83,0,0,0,.83-.83A.84.84,0,0,0,49.53,31.94Z"/><path class="cls-1" d="M49.53,36.36H36.36a.84.84,0,0,0-.83.84.83.83,0,0,0,.83.83H49.53a.83.83,0,0,0,.83-.83A.84.84,0,0,0,49.53,36.36Z"/><path class="cls-1" d="M49.53,40.78H36.36a.84.84,0,0,0,0,1.67H49.53a.84.84,0,0,0,0-1.67Z"/><path class="cls-1" d="M49.53,45.2H36.36a.83.83,0,0,0-.83.83.84.84,0,0,0,.83.84H49.53a.84.84,0,0,0,.83-.84A.83.83,0,0,0,49.53,45.2Z"/><path class="cls-1" d="M49.53,49.62H36.36a.83.83,0,0,0-.83.83.84.84,0,0,0,.83.84H49.53a.84.84,0,0,0,.83-.84A.83.83,0,0,0,49.53,49.62Z"/><path class="cls-1" d="M49.53,54H14.24a.84.84,0,0,0-.84.84.83.83,0,0,0,.84.83H49.53a.83.83,0,0,0,.83-.83A.84.84,0,0,0,49.53,54Z"/><path class="cls-1" d="M49.53,58.45H14.24a.84.84,0,0,0-.84.84.83.83,0,0,0,.84.83H49.53a.83.83,0,0,0,.83-.83A.84.84,0,0,0,49.53,58.45Z"/></svg>