<svg id="Capa_1" data-name="Capa 1" xmlns="http://www.w3.org/2000/svg" viewBox="0 0 75 75"><defs><style>.cls-1{fill:#006ec9;}</style></defs><title>prenseMesa de trabajo 1</title><path class="cls-1" d="M30.36,9.94H21.5a1.23,1.23,0,0,0,0,2.46h8.86a1.23,1.23,0,0,0,0-2.46Z"/><path class="cls-1" d="M26.8,62.19a1.23,1.23,0,1,0,.36.87A1.24,1.24,0,0,0,26.8,62.19Z"/><path class="cls-1" d="M61.08,45.11l-4.53-7.84a5.54,5.54,0,0,0-5.4-9.36l-4.53-7.84a1.23,1.23,0,0,0-1-.61,1.22,1.22,0,0,0-1,.47l-14.09,18-5.91,3.41a7.07,7.07,0,0,0,1.7,13,7.26,7.26,0,0,0,1.84.24,7,7,0,0,0,3.52-1l.71-.4,2.45,4.25H8.46V16.34H43.4v.37a1.23,1.23,0,1,0,2.46,0V10.84A4.83,4.83,0,0,0,41,6H10.83A4.83,4.83,0,0,0,6,10.84V64.16A4.83,4.83,0,0,0,10.83,69H41a4.83,4.83,0,0,0,4.83-4.83V49l14.33-2a1.24,1.24,0,0,0,.89-1.84ZM8.46,10.84a2.37,2.37,0,0,1,2.37-2.37H41a2.37,2.37,0,0,1,2.37,2.37v3H8.46ZM53.58,30.23a3.05,3.05,0,0,1,1.88,1.43,3.09,3.09,0,0,1-.2,3.38l-2.82-4.9A3.15,3.15,0,0,1,53.58,30.23ZM30.42,51.44a4.54,4.54,0,0,1-3.49.46,4.6,4.6,0,0,1-1.11-8.44l5.05-2.91,4.6,8Zm4.07.5,2.22-1.29,2.9,5L37.39,57ZM43.4,64.16A2.37,2.37,0,0,1,41,66.53H10.83a2.37,2.37,0,0,1-2.37-2.37V59.88H43.4v4.28Zm0-6.74H41.53l.38-.22a1.23,1.23,0,0,0,.45-1.68l-3.23-5.58,4.27-.61Zm-5.59-9.78L32.8,39l9-11.43L52.17,45.6Zm17-2.41L43.38,25.46l2-2.58L58,44.77Z"/><path class="cls-1" d="M68.83,24a1.23,1.23,0,0,0-1.68-.45l-6,3.49a1.23,1.23,0,0,0,.62,2.29,1.21,1.21,0,0,0,.61-.16l6-3.49A1.23,1.23,0,0,0,68.83,24Z"/><path class="cls-1" d="M57.7,18.58a1.24,1.24,0,0,0-1.51.87l-.88,3.28a1.24,1.24,0,0,0,.87,1.51,1.24,1.24,0,0,0,1.51-.87l.88-3.28A1.23,1.23,0,0,0,57.7,18.58Z"/><path class="cls-1" d="M67.1,34.68l-3.4-.91a1.23,1.23,0,1,0-.63,2.37l3.39.91a1.17,1.17,0,0,0,.32,0,1.23,1.23,0,0,0,.32-2.41Z"/><path class="cls-1" d="M29.33,19.93h-17a1.23,1.23,0,1,0,0,2.46h17a1.23,1.23,0,1,0,0-2.46Z"/><path class="cls-1" d="M30.2,26.2a1.19,1.19,0,0,0-.87-.37,1.23,1.23,0,0,0-.87,2.1,1.24,1.24,0,0,0,.87.36,1.23,1.23,0,0,0,.87-.36,1.22,1.22,0,0,0,0-1.73Z"/><path class="cls-1" d="M24.25,25.83H12.36a1.23,1.23,0,1,0,0,2.46H24.25a1.23,1.23,0,1,0,0-2.46Z"/><path class="cls-1" d="M26.41,31.74H17.08a1.23,1.23,0,0,0,0,2.46h9.33a1.23,1.23,0,0,0,0-2.46Z"/><path class="cls-1" d="M12.41,31.74h-.06a1.23,1.23,0,1,0,0,2.46h.06a1.23,1.23,0,0,0,0-2.46Z"/></svg>