<svg id="Capa_1" data-name="Capa 1" xmlns="http://www.w3.org/2000/svg" viewBox="0 0 75 75"><defs><style>.cls-1{fill:#006ec9;}</style></defs><title>speechMesa de trabajo 1</title><path class="cls-1" d="M21.72,57.29v4.65a3,3,0,0,0,3,3h25.5a3,3,0,0,0,3-3V57.29a3,3,0,0,0-3-3H24.75A3,3,0,0,0,21.72,57.29Zm28.9,0v4.65a.38.38,0,0,1-.37.37H24.75a.36.36,0,0,1-.37-.37V57.29a.37.37,0,0,1,.37-.36h25.5A.37.37,0,0,1,50.62,57.29Z"/><path class="cls-1" d="M68,41.19h-.67V35.54h0a.51.51,0,0,0,0-.22,1.27,1.27,0,0,0-.29-.62L63.92,31A4.31,4.31,0,0,0,63.57,26l-1.23-1.47a4.31,4.31,0,0,0-6.06-.54h0A4.31,4.31,0,0,0,55.74,30L57,31.48A4.26,4.26,0,0,0,59.9,33l.39,0a4.38,4.38,0,0,0,1.6-.31L64.67,36v5.17H54c-.1-7.46-1.23-11.17-6.6-13.75l-2.13-2.18a8.18,8.18,0,0,0,2.67-5.59V14.05a10.43,10.43,0,1,0-20.85,0v5.62a8.15,8.15,0,0,0,2.68,5.59l-2.14,2.18C22.24,30,21.12,33.72,21,41.19H10.33V36l2.78-3.31a4.34,4.34,0,0,0,1.6.31l.39,0A4.26,4.26,0,0,0,18,31.48L19.25,30a4.24,4.24,0,0,0,1-3.13,4.3,4.3,0,0,0-7.58-2.39L11.42,26A4.33,4.33,0,0,0,11.08,31L8,34.69a1.36,1.36,0,0,0-.3.76s0,0,0,.07v0h0v5.65H7a3.53,3.53,0,0,0-3.52,3.52V47A3.53,3.53,0,0,0,7,50.52H8.64L13.46,69.4a2.25,2.25,0,0,0,2.22,2H59.32a2.27,2.27,0,0,0,2.22-2l4.82-18.88H68A3.53,3.53,0,0,0,71.51,47V44.71A3.53,3.53,0,0,0,68,41.19ZM61.33,30A1.65,1.65,0,0,1,59,29.77l-1.24-1.48A1.64,1.64,0,0,1,58,26a1.67,1.67,0,0,1,2.32.2l1.24,1.48A1.65,1.65,0,0,1,61.33,30ZM13.46,27.66l1.24-1.48a1.61,1.61,0,0,1,1.11-.57H16A1.59,1.59,0,0,1,17,26a1.66,1.66,0,0,1,.21,2.32L16,29.77a1.62,1.62,0,0,1-1.11.58,1.64,1.64,0,0,1-1.41-2.69Zm24-21.38a7.78,7.78,0,0,1,7.77,7.77v1a24.12,24.12,0,0,1-6.82-1.83,15.14,15.14,0,0,0-5.18-1.33A5.8,5.8,0,0,0,29.8,13,7.77,7.77,0,0,1,37.5,6.28ZM29.73,19.67V16.86c2.36-3.23,4.1-2.57,7.77-1.16a26,26,0,0,0,7.77,2v2c0,3.26-5.06,6.71-7.77,6.71S29.73,22.93,29.73,19.67Zm15,8.82L41,31.86l-1.55-3.12A13.25,13.25,0,0,0,43.2,27Zm-9.18.25L34,31.86l-3.65-3.37L31.8,27A13.12,13.12,0,0,0,35.51,28.74Zm-7.34,1.39L33.46,35a1.32,1.32,0,0,0,.9.35l.24,0a1.34,1.34,0,0,0,.95-.72l2-3.92,2,3.92a1.33,1.33,0,0,0,2.09.39l5.29-4.88c3.42,1.83,4.39,4.23,4.5,11.06H23.67C23.77,34.36,24.74,32,28.17,30.13ZM68.85,47a.86.86,0,0,1-.86.86H43.46a1.33,1.33,0,1,0,0,2.66H63.62L59,68.72H16l-4.65-18.2H31.53a1.33,1.33,0,0,0,0-2.66H7A.87.87,0,0,1,6.15,47V44.71A.88.88,0,0,1,7,43.84H68a.88.88,0,0,1,.86.87Z"/><path class="cls-1" d="M37.49,50.52h0a1.33,1.33,0,1,0-1.33-1.33A1.33,1.33,0,0,0,37.5,50.52Z"/></svg>